<?xml version="1.0" standalone="no"?><!DOCTYPE svg PUBLIC "-//W3C//DTD SVG 1.1//EN" "http://www.w3.org/Graphics/SVG/1.1/DTD/svg11.dtd"><svg t="1555656626495" class="icon" style="" viewBox="0 0 1024 1024" version="1.1" xmlns="http://www.w3.org/2000/svg" p-id="3541" xmlns:xlink="http://www.w3.org/1999/xlink" width="64" height="64"><defs><style type="text/css"></style></defs><path d="M272 1020a8 8 0 0 1-3.856-15.024l56.384-31.008A191.936 191.936 0 0 0 424 805.744v-20.976a8 8 0 0 1 16 0v20.976c0 75.856-41.296 145.696-107.744 182.256l-56.384 31.008a8.112 8.112 0 0 1-3.872 0.992zM752 1020a8 8 0 0 1-3.856-0.992l-56.384-31.008a208 208 0 0 1-107.744-182.256v-20.976a8 8 0 0 1 16 0v20.976c0 70.032 38.112 134.48 99.472 168.224l56.384 31.008a8.016 8.016 0 0 1-3.872 15.024z" fill="#ffffff" p-id="3542"></path><path d="M200 1020a8 8 0 0 1-8-8c0-110.288 89.712-200 200-200 0.992 0 1.968 0.064 2.96 0.128l1.616 0.096a8 8 0 0 1-0.176 16h-0.176l-4.224-0.224c-101.456 0-184 82.544-184 184a8 8 0 0 1-8 8zM824 1020a8 8 0 0 1-8-8c0-101.456-82.544-184-184-184l-4.224 0.224h-0.176a8 8 0 0 1-0.176-16c2.576-0.16 3.568-0.224 4.56-0.224 110.288 0 200 89.712 200 200a7.984 7.984 0 0 1-7.984 8zM40 1020a8 8 0 0 1-8-8c0-83.808 68.192-152 152-152 11.68 0 23.568 1.424 35.264 4.224a8 8 0 0 1 5.92 9.648 7.952 7.952 0 0 1-9.648 5.92 135.712 135.712 0 0 0-31.552-3.776c-74.992 0-136 61.008-136 136a7.968 7.968 0 0 1-7.984 7.984zM984 1020a8 8 0 0 1-8-8c0-74.992-61.008-136-136-136-10.432 0-21.04 1.264-31.552 3.776a8.016 8.016 0 0 1-3.728-15.568 151.856 151.856 0 0 1 35.264-4.224c83.808 0 152 68.192 152 152a7.984 7.984 0 0 1-7.984 8.016z" fill="#ffffff" p-id="3543"></path><path d="M1016 1020h-432a8 8 0 0 1 0-16h432a8 8 0 0 1 0 16zM536 1020h-48a8 8 0 0 1 0-16h48a8 8 0 0 1 0 16zM440 1020H8a8 8 0 0 1 0-16h432a8 8 0 0 1 0 16zM624 696.784H400a8 8 0 0 1-8-8V230.576c0-72.56 24.528-144.08 69.088-201.36C473.696 13.008 492.112 4 512 4s38.304 9.008 50.512 24.72l0.384 0.496a329.52 329.52 0 0 1 69.088 201.36v458.208a7.984 7.984 0 0 1-7.984 8z m-216-16h208V230.576A313.6 313.6 0 0 0 550.288 39.04l-0.368-0.496C540.736 26.768 526.928 20 512 20s-28.736 6.768-37.888 18.528A314 314 0 0 0 408 230.576v450.208z" fill="#ffffff" p-id="3544"></path><path d="M208 624.784h160v64H208z" fill="#ffffff" p-id="3545"></path><path d="M592 760.784H432a8 8 0 0 1-8-8v-64a8 8 0 0 1 8-8h160a8 8 0 0 1 8 8v64a8 8 0 0 1-8 8z m-152-16h144v-48h-144v48z" fill="#ffffff" p-id="3546"></path><path d="M512 204m-64 0a64 64 0 1 0 128 0 64 64 0 1 0-128 0Z" fill="#ffffff" p-id="3547"></path><path d="M512 276c-39.696 0-72-32.304-72-72s32.304-72 72-72 72 32.304 72 72-32.304 72-72 72z m0-128c-30.88 0-56 25.12-56 56s25.12 56 56 56 56-25.12 56-56-25.12-56-56-56zM208 632.784a8 8 0 0 1-8-8v-9.296a87.52 87.52 0 0 1 33.376-68.992l129.664-102.64a8 8 0 1 1 9.936 12.528l-129.664 102.64a71.584 71.584 0 0 0-27.312 56.448v9.296a8 8 0 0 1-8 8.016z" fill="#ffffff" p-id="3548"></path><path d="M656 624.784h160v64H656z" fill="#ffffff" p-id="3549"></path><path d="M368 696.784H208a8 8 0 0 1-8-8v-64a8 8 0 0 1 8-8h160a8 8 0 0 1 0 16h-152v48H368a8 8 0 0 1 0 16zM816 696.784H656a8 8 0 0 1 0-16h152v-48H656a8 8 0 0 1 0-16h160a8 8 0 0 1 8 8v64a8 8 0 0 1-8 8z" fill="#ffffff" p-id="3550"></path><path d="M816 632.784a8 8 0 0 1-8-8v-9.296c0-22.144-9.952-42.72-27.312-56.448l-129.664-102.64a8 8 0 1 1 9.936-12.528l129.664 102.64a87.52 87.52 0 0 1 33.376 68.992v9.296a8 8 0 0 1-8 7.984zM864 68h-64a8 8 0 0 1 0-16h64a8 8 0 0 1 0 16z" fill="#ffffff" p-id="3551"></path><path d="M832 100a8 8 0 0 1-8-8v-64a8 8 0 0 1 16 0v64a8 8 0 0 1-8 8zM776 132h-64a8 8 0 0 1 0-16h64a8 8 0 0 1 0 16z" fill="#ffffff" p-id="3552"></path><path d="M744 164a8 8 0 0 1-8-8v-64a8 8 0 0 1 16 0v64a8 8 0 0 1-8 8zM104 440h-32a8 8 0 0 1 0-16h32a8 8 0 0 1 0 16zM256 440H136a8 8 0 0 1 0-16H256a8 8 0 0 1 0 16zM952 440h-32a8 8 0 0 1 0-16h32a8 8 0 0 1 0 16zM888 440H768a8 8 0 0 1 0-16h120a8 8 0 0 1 0 16zM304 508.784a8 8 0 0 1-8-8V312.992a87.68 87.68 0 0 1 14.784-48.816l18.56-27.84c2.976-4.432 10.336-4.432 13.312 0l18.56 27.84c9.664 14.512 14.784 31.392 14.784 48.816v137.12c0 2.432-1.12 4.752-3.024 6.272l-64 50.656a8 8 0 0 1-4.976 1.744z m32-253.584l-11.904 17.856a71.84 71.84 0 0 0-12.096 39.936v171.248l48-38v-133.248a71.84 71.84 0 0 0-12.096-39.936L336 255.2zM720 508.784a8.064 8.064 0 0 1-4.976-1.728l-64-50.656a8.048 8.048 0 0 1-3.024-6.272v-137.12c0-17.44 5.104-34.32 14.784-48.816l18.56-27.84a8.016 8.016 0 0 1 13.312 0l18.56 27.856c9.664 14.496 14.784 31.376 14.784 48.816v187.76a8 8 0 0 1-8 8z m-56-62.528l48 38V313.008c0-14.272-4.192-28.08-12.096-39.936L688 255.2l-11.904 17.856a71.776 71.776 0 0 0-12.096 39.936v133.264z m5.44-177.632h0.16-0.16z" fill="#ffffff" p-id="3553"></path><path d="M576 648.784a8 8 0 0 1-8-8v-83.2a8 8 0 0 1 16 0v83.2a8 8 0 0 1-8 8z" fill="#ffffff" p-id="3554"></path></svg>